# xmcd
#
# Track frame offsets:
#	151
#	17430
#	32963
#	46268
#	63432
#	78424
#	93220
#	104838
#	117599
#	129665
#	144822
#	158433
#	174525
#	193722
#
# Disc length: 2813 seconds
#
# Revision: 1
# Processed by: cddbd v1.5.2PL0 Copyright (c) Steve Scherf et al.
# Submitted via: audiograbber 1.83.01
#
DISCID=b50afb0e
DTITLE=Claude Demet - L'instinct
DYEAR=2008
DGENRE=Blues
TTITLE0=Redette du plaisir
TTITLE1=Cigale
TTITLE2=Les oiseaux de L'errance
TTITLE3=Une chaine deuve a mon velo
TTITLE4=Amours factices
TTITLE5=Vieux dinosaures
TTITLE6=L'everest
TTITLE7=Aux flammes
TTITLE8=Elles sont
TTITLE9=Entre deux averses
TTITLE10=Le chant des sirenes
TTITLE11=En Irlande
TTITLE12=Que la pluie
TTITLE13=Rouge dans le ciel blues
EXTD=
EXTT0=
EXTT1=
EXTT2=
EXTT3=
EXTT4=
EXTT5=
EXTT6=
EXTT7=
EXTT8=
EXTT9=
EXTT10=
EXTT11=
EXTT12=
EXTT13=
PLAYORDER=
